<?xml version="1.0" encoding="UTF-8" standalone="no"?>
<svg width="20px" height="20px" viewBox="0 0 20 20" version="1.1" xmlns="http://www.w3.org/2000/svg" xmlns:xlink="http://www.w3.org/1999/xlink" xmlns:sketch="http://www.bohemiancoding.com/sketch/ns">
    <!-- Generator: Sketch 3.4 (15575) - http://www.bohemiancoding.com/sketch -->
    <title>Cart-icon</title>
    <desc>Created with Sketch.</desc>
    <defs>
        <path id="path-1" d="M0,0 L20,0 L20,20 L0,20"></path>
    </defs>
    <g id="Page-1" stroke="none" stroke-width="1" fill="none" fill-rule="evenodd" sketch:type="MSPage">
        <g id="Publish" sketch:type="MSArtboardGroup" transform="translate(-20.000000, -278.000000)">
            <g id="Menubar-3" sketch:type="MSLayerGroup">
                <g id="Shoppingcart" transform="translate(0.000000, 256.000000)">
                    <g id="Cart-icon" transform="translate(20.000000, 22.000000)">
                        <mask id="mask-2" sketch:name="Clip 2" fill="white">
                            <use xlink:href="#path-1"></use>
                        </mask>
                        <g id="Clip-2"></g>
                        <path d="M17,14 L4,14 C3.4,14 3,13.6 3,13 L3,2 L0,2 L0,0 L4,0 C4.6,0 5,0.4 5,1 L5,12 L16.2,12 L17.7,6 L7,6 L7,4 L19,4 C19.6,4 20.1,4.6 20,5.2 L18,13.2 C17.9,13.7 17.5,14 17,14" id="Fill-1" fill="#0F263D" sketch:type="MSShapeGroup" mask="url(#mask-2)"></path>
                        <path d="M6.414214,16.585786 C7.195262,17.366835 7.195262,18.633165 6.414214,19.4142136 C5.633165,20.1952621 4.366835,20.1952621 3.585786,19.4142136 C2.804738,18.633165 2.804738,17.366835 3.585786,16.585786 C4.366835,15.804738 5.633165,15.804738 6.414214,16.585786" id="Fill-3" fill="#0F263D" sketch:type="MSShapeGroup" mask="url(#mask-2)"></path>
                        <path d="M17.41421,16.585786 C18.19526,17.366835 18.19526,18.633165 17.41421,19.4142136 C16.63316,20.1952621 15.36684,20.1952621 14.58579,19.4142136 C13.80474,18.633165 13.80474,17.366835 14.58579,16.585786 C15.36684,15.804738 16.63316,15.804738 17.41421,16.585786" id="Fill-4" fill="#0F263D" sketch:type="MSShapeGroup" mask="url(#mask-2)"></path>
                    </g>
                </g>
            </g>
        </g>
    </g>
</svg>