<?xml version="1.0" encoding="UTF-8" standalone="no"?>
<svg width="20px" height="18px" viewBox="0 0 20 18" version="1.1" xmlns="http://www.w3.org/2000/svg" xmlns:xlink="http://www.w3.org/1999/xlink" xmlns:sketch="http://www.bohemiancoding.com/sketch/ns">
    <!-- Generator: Sketch 3.4 (15575) - http://www.bohemiancoding.com/sketch -->
    <title>Download-icon</title>
    <desc>Created with Sketch.</desc>
    <defs></defs>
    <g id="Page-1" stroke="none" stroke-width="1" fill="none" fill-rule="evenodd" sketch:type="MSPage">
        <g id="Mobile---front" sketch:type="MSArtboardGroup" transform="translate(-20.000000, -343.000000)" fill="#000000">
            <g id="Menubar-3" sketch:type="MSLayerGroup">
                <g id="Download" transform="translate(0.000000, 320.000000)" sketch:type="MSShapeGroup">
                    <g id="Download-icon" transform="translate(20.000000, 23.000000)">
                        <path d="M19,18 L1,18 C0.4,18 0,17.6 0,17 L0,12 L2,12 L2,16 L18,16 L18,12 L20,12 L20,17 C20,17.6 19.6,18 19,18" id="Fill-1"></path>
                        <path d="M15.7,6.3 C15.3,5.9 14.7,5.9 14.3,6.3 L11,9.6 L11,1 C11,0.4 10.6,0 10,0 C9.4,0 9,0.4 9,1 L9,9.6 L5.7,6.3 C5.3,5.9 4.7,5.9 4.3,6.3 C3.9,6.7 3.9,7.3 4.3,7.7 L9.3,12.7 C9.7,13.1 10.3,13.1 10.7,12.7 L15.7,7.7 C16.1,7.3 16.1,6.7 15.7,6.3" id="Fill-3"></path>
                    </g>
                </g>
            </g>
        </g>
    </g>
</svg>