<?xml version="1.0" encoding="UTF-8" standalone="no"?>
<svg width="20px" height="20px" viewBox="0 0 20 20" version="1.1" xmlns="http://www.w3.org/2000/svg" xmlns:xlink="http://www.w3.org/1999/xlink" xmlns:sketch="http://www.bohemiancoding.com/sketch/ns">
    <!-- Generator: Sketch 3.4 (15575) - http://www.bohemiancoding.com/sketch -->
    <title>Fullscreen-icon</title>
    <desc>Created with Sketch.</desc>
    <defs></defs>
    <g id="Page-1" stroke="none" stroke-width="1" fill="none" fill-rule="evenodd" sketch:type="MSPage">
        <g id="Publish" sketch:type="MSArtboardGroup" transform="translate(-20.000000, -342.000000)" fill="#0F263D">
            <g id="Menubar-3" sketch:type="MSLayerGroup">
                <g id="Fullscreen" transform="translate(0.000000, 320.000000)" sketch:type="MSShapeGroup">
                    <g id="Fullscreen-icon" transform="translate(20.000000, 22.000000)">
                        <path d="M19,0 L13,0 C12.4,0 12,0.4 12,1 C12,1.6 12.4,2 13,2 L16.6,2 L12.3,6.3 C11.9,6.7 11.9,7.3 12.3,7.7 C12.7,8.1 13.3,8.1 13.7,7.7 L18,3.4 L18,7 C18,7.6 18.4,8 19,8 C19.6,8 20,7.6 20,7 L20,1 C20,0.4 19.6,0 19,0" id="Fill-1"></path>
                        <path d="M8,1 C8,0.4 7.6,0 7,0 L1,0 C0.5,0 0,0.5 0,1 L0,7 C0,7.6 0.4,8 1,8 C1.6,8 2,7.6 2,7 L2,3.4 L6.3,7.7 C6.5,7.9 6.7,8 7,8 C7.3,8 7.5,7.9 7.7,7.7 C8.1,7.3 8.1,6.7 7.7,6.3 L3.4,2 L7,2 C7.6,2 8,1.6 8,1" id="Fill-3"></path>
                        <path d="M20,13 C20,12.4 19.6,12 19,12 C18.4,12 18,12.4 18,13 L18,16.6 L13.7,12.3 C13.3,11.9 12.7,11.9 12.3,12.3 C11.9,12.7 11.9,13.3 12.3,13.7 L16.6,18 L13,18 C12.4,18 12,18.4 12,19 C12,19.6 12.4,20 13,20 L19,20 C19.5,20 20,19.5 20,19 L20,13" id="Fill-4"></path>
                        <path d="M7,18 L3.4,18 L7.7,13.7 C8.1,13.3 8.1,12.7 7.7,12.3 C7.3,11.9 6.7,11.9 6.3,12.3 L2,16.6 L2,13 C2,12.4 1.6,12 1,12 C0.4,12 0,12.4 0,13 L0,19 C0,19.6 0.4,20 1,20 L7,20 C7.6,20 8,19.6 8,19 C8,18.4 7.6,18 7,18" id="Fill-5"></path>
                    </g>
                </g>
            </g>
        </g>
    </g>
</svg>