<?xml version="1.0" encoding="UTF-8" standalone="no"?>
<svg width="20px" height="20px" viewBox="0 0 20 20" version="1.1" xmlns="http://www.w3.org/2000/svg" xmlns:xlink="http://www.w3.org/1999/xlink" xmlns:sketch="http://www.bohemiancoding.com/sketch/ns">
    <!-- Generator: Sketch 3.4 (15575) - http://www.bohemiancoding.com/sketch -->
    <title>Gird-icon</title>
    <desc>Created with Sketch.</desc>
    <defs></defs>
    <g id="Page-1" stroke="none" stroke-width="1" fill="none" fill-rule="evenodd" sketch:type="MSPage">
        <g id="Publish" sketch:type="MSArtboardGroup" transform="translate(-20.000000, -150.000000)" fill="#0F263D">
            <g id="Menubar-3" sketch:type="MSLayerGroup">
                <g id="Gridoverview" transform="translate(0.000000, 128.000000)" sketch:type="MSShapeGroup">
                    <g id="Gird-icon" transform="translate(20.000000, 22.000000)">
                        <path d="M19,20 L1,20 C0.4,20 0,19.6 0,19 L0,1 C0,0.4 0.4,0 1,0 L19,0 C19.6,0 20,0.4 20,1 L20,19 C20,19.6 19.6,20 19,20 L19,20 Z M2,18 L18,18 L18,2 L2,2 L2,18 L2,18 Z" id="Fill-1"></path>
                        <path d="M4,4 L9,4 L9,9 L4,9 L4,4 Z" id="Fill-3"></path>
                        <path d="M11,4 L16,4 L16,9 L11,9 L11,4 Z" id="Fill-4"></path>
                        <path d="M4,11 L9,11 L9,16 L4,16 L4,11 Z" id="Fill-5"></path>
                        <path d="M11,11 L16,11 L16,16 L11,16 L11,11 Z" id="Fill-6"></path>
                    </g>
                </g>
            </g>
        </g>
    </g>
</svg>