<?xml version="1.0" encoding="UTF-8" standalone="no"?>
<svg width="40px" height="57px" viewBox="0 0 40 57" version="1.1" xmlns="http://www.w3.org/2000/svg" xmlns:xlink="http://www.w3.org/1999/xlink" xmlns:sketch="http://www.bohemiancoding.com/sketch/ns">
    <!-- Generator: Sketch 3.4 (15575) - http://www.bohemiancoding.com/sketch -->
    <title>Hold-icon</title>
    <desc>Created with Sketch.</desc>
    <defs></defs>
    <g id="Page-1" stroke="none" stroke-width="1" fill="none" fill-rule="evenodd" sketch:type="MSPage">
        <g id="Mobile---double-tap" sketch:type="MSArtboardGroup" transform="translate(-140.000000, -145.000000)">
            <g id="Page-1-+-DOUBLE-TAP-VOOR-MENU-+-Tik-twee-maal-op-het" sketch:type="MSLayerGroup" transform="translate(20.000000, 145.000000)">
                <g id="Hold-icon" transform="translate(120.000000, 0.000000)" sketch:type="MSShapeGroup">
                    <path d="M31.358,57 L24.881,57 C21.62,57 18.967,54.3047662 18.967,50.9905175 L18.967,47.6428495 C17.587,46.3909055 12.638,41.6884055 11.053,37.2352805 C10.065,34.4636352 9.602,32.1907296 9.229,30.3647448 C8.936,28.9336377 8.684,27.6969718 8.268,26.6454439 C7.852,25.5909337 7.927,24.5497168 8.481,23.7161223 C9.216,22.6086836 10.602,22.1139134 11.65,22.1139134 C12.087,22.1139134 12.469,22.1964209 12.784,22.3603061 C13.677,22.8243777 14.864,24.3481811 15.693,25.9400791 L16.167,11.3847932 C16.17,11.2952116 16.185,11.2046325 16.211,11.1170357 C16.548,10.0127014 17.641,8.14285714 19.597,8.14285714 C21.873,8.14285714 23.115,10.1928621 23.115,11.2462527 C23.115,11.4722679 23.138,14.4840868 23.161,17.4674566 C23.736,17.0796734 24.508,16.7742654 25.515,16.7742654 C27.34,16.7742654 28.293,18.0436045 28.618,19.1855893 C29.158,18.8048904 29.884,18.5351379 30.835,18.5351379 C32.983,18.5351379 34.372,20.1881582 34.372,22.7461045 C34.372,22.8661302 34.38,23.0168443 34.394,23.1919055 C34.856,22.6330307 35.467,22.248352 36.273,22.248352 C38.502,22.248352 40,23.8106711 40,26.1355179 L40,40.0424695 C40,40.1218623 39.991,40.2012552 39.973,40.2786632 C39.93,40.4629259 38.936,44.6412091 37.273,46.9639387 L37.273,50.9844297 C37.273,54.3016597 34.62,57 31.358,57 L31.358,57 L31.358,57 Z M11.65,24.1496277 C11.138,24.1496277 10.432,24.4132934 10.139,24.8550027 C10.025,25.0270816 9.9,25.3191964 10.124,25.886153 C10.606,27.1055357 10.875,28.4237116 11.187,29.9504973 C11.565,31.8049312 11.995,33.9078648 12.933,36.5410918 C14.565,41.1234439 20.555,46.353255 20.616,46.4050639 C20.839,46.598528 20.967,46.8825611 20.967,47.1797652 L20.967,50.9905175 C20.967,53.1820413 22.723,54.9642857 24.881,54.9642857 L31.358,54.9642857 C33.517,54.9642857 35.273,53.1789358 35.273,50.9844297 L35.273,46.617908 C35.273,46.3827016 35.353,46.1556991 35.499,45.9735434 C36.869,44.266597 37.829,40.6043266 38,39.9173443 L38,26.1355179 C38,25.2917346 37.7,24.2840662 36.273,24.2840662 C35.735,24.2840662 35.134,26.0072984 34.995,27.4323187 C34.946,27.9361479 34.541,28.3269236 34.044,28.349408 C33.544,28.3921479 33.108,28.0175357 33.017,27.5197934 C32.951,27.1615789 32.372,23.9786582 32.372,22.7461045 C32.372,21.753592 32.105,20.5708521 30.835,20.5708521 C29.772,20.5708521 29.416,21.1438955 29.309,21.4075511 L29.37,24.0499795 C29.383,24.5853723 28.984,25.0402527 28.459,25.0870945 C27.941,25.1390357 27.463,24.7583266 27.382,24.2290307 L26.755,20.0985766 C26.712,19.6609693 26.524,18.8099796 25.515,18.8099796 C24.384,18.8099796 23.822,19.5143571 23.646,19.7882014 L23.202,23.6418187 C23.14,24.1751046 22.686,24.5975561 22.155,24.5385305 C21.627,24.5099593 21.213,24.06825 21.209,23.5308621 C21.209,23.5308621 21.115,11.7247371 21.115,11.2473723 C21.119,11.2819082 20.757,10.1785714 19.597,10.1785714 C18.786,10.1785714 18.297,11.2636479 18.161,11.6137805 L17.487,32.2936045 C17.475,32.6792807 17.251,33.0223291 16.908,33.1842295 C16.565,33.3460077 16.162,33.2961836 15.866,33.0569973 C15.211,32.5276912 15.096,31.6502373 14.949,30.5376991 C14.872,29.9555866 14.785,29.2949566 14.612,28.6007679 C14.188,26.8897195 12.549,24.5242398 11.875,24.1731096 C11.864,24.1690179 11.786,24.1496277 11.65,24.1496277 L11.65,24.1496277 L11.65,24.1496277 Z" id="Fill-1" fill="#FFFFFF"></path>
                    <path d="M31.358,57 L24.881,57 C21.62,57 18.967,54.3047143 18.967,50.9905714 L18.967,47.6428393 C17.587,46.390875 12.638,41.688375 11.053,37.23525 C10.065,34.463625 9.602,32.19075 9.229,30.3647143 C8.936,28.9336071 8.684,27.6969107 8.268,26.6454643 C7.852,25.5909643 7.927,24.5496964 8.481,23.7160714 C9.216,22.6086429 10.602,22.1139643 11.65,22.1139643 C12.087,22.1139643 12.469,22.1964107 12.784,22.3602857 C13.677,22.8244286 14.864,24.3481607 15.693,25.9400893 L16.167,11.3847321 C16.17,11.2951607 16.185,11.2045714 16.211,11.1170357 C16.548,10.0126607 17.641,8.14285714 19.597,8.14285714 C21.873,8.14285714 23.115,10.1928214 23.115,11.2463036 C23.115,11.4722679 23.138,14.4841071 23.161,17.4674464 C23.736,17.0796429 24.508,16.7742857 25.515,16.7742857 C27.34,16.7742857 28.293,18.0435536 28.618,19.1855893 C29.158,18.8049107 29.884,18.5351786 30.835,18.5351786 C32.983,18.5351786 34.372,20.1881786 34.372,22.7460536 C34.372,22.8661607 34.38,23.0168036 34.394,23.191875 C34.856,22.6330714 35.467,22.2483214 36.273,22.2483214 C38.502,22.2483214 40,23.8107321 40,26.1355179 L40,40.0425 C40,40.1218929 39.991,40.2012857 39.973,40.2786429 C39.93,40.462875 38.936,44.6411786 37.273,46.9639286 L37.273,50.9844643 C37.273,54.3016607 34.62,57 31.358,57 L31.358,57 L31.358,57 Z M11.65,24.1496786 C11.138,24.1496786 10.432,24.4133036 10.139,24.8550536 C10.025,25.0270714 9.9,25.3191964 10.124,25.8861429 C10.606,27.1055357 10.875,28.4236607 11.187,29.9504464 C11.565,31.8049821 11.995,33.907875 12.933,36.5410714 C14.565,41.1234643 20.555,46.3532143 20.616,46.405125 C20.839,46.5985179 20.967,46.8825 20.967,47.1797143 L20.967,50.9905714 C20.967,53.1820179 22.723,54.9642857 24.881,54.9642857 L31.358,54.9642857 C33.517,54.9642857 35.273,53.1789643 35.273,50.9844643 L35.273,46.6178571 C35.273,46.3827321 35.353,46.15575 35.499,45.9735536 C36.869,44.2666071 37.829,40.6043571 38,39.9173036 L38,26.1355179 C38,25.2917143 37.7,24.2840357 36.273,24.2840357 C35.735,24.2840357 35.134,26.0072679 34.995,27.4322679 C34.946,27.9361071 34.541,28.3269643 34.044,28.3493571 C33.544,28.3921071 33.108,28.0175357 33.017,27.5198036 C32.951,27.1615179 32.372,23.9786786 32.372,22.7460536 C32.372,21.7536429 32.105,20.5708929 30.835,20.5708929 C29.772,20.5708929 29.416,21.1439464 29.309,21.4075714 L29.37,24.0499286 C29.383,24.5853214 28.984,25.0403036 28.459,25.087125 C27.941,25.1390357 27.463,24.7583571 27.382,24.2290714 L26.755,20.0986071 C26.712,19.6609286 26.524,18.81 25.515,18.81 C24.384,18.81 23.822,19.5143571 23.646,19.7881607 L23.202,23.6417679 C23.14,24.175125 22.686,24.5975357 22.155,24.5385 C21.627,24.51 21.213,24.06825 21.209,23.5308214 C21.209,23.5308214 21.115,11.7246964 21.115,11.2473214 C21.119,11.2819286 20.757,10.1785714 19.597,10.1785714 C18.786,10.1785714 18.297,11.2636071 18.161,11.61375 L17.487,32.2935536 C17.475,32.6793214 17.251,33.0223393 16.908,33.1841786 C16.565,33.3460179 16.162,33.2961429 15.866,33.0569464 C15.211,32.5276607 15.096,31.6502679 14.949,30.53775 C14.872,29.9555357 14.785,29.2949464 14.612,28.6007679 C14.188,26.88975 12.549,24.52425 11.875,24.1730893 C11.864,24.1690179 11.786,24.1496786 11.65,24.1496786 L11.65,24.1496786 L11.65,24.1496786 Z" id="Stroke-3" stroke-opacity="0" stroke="#000000"></path>
                    <path d="M7,14.25 C3.14,14.25 0,11.0529209 0,7.125 C0,3.19707911 3.14,0 7,0 C10.86,0 14,3.19707911 14,7.125 C14,11.0529209 10.86,14.25 7,14.25 L7,14.25 L7,14.25 Z M7,2.03571429 C4.243,2.03571429 2,4.31880857 2,7.125 C2,9.93119143 4.243,12.2142857 7,12.2142857 C9.757,12.2142857 12,9.93119143 12,7.125 C12,4.31880857 9.757,2.03571429 7,2.03571429 L7,2.03571429 L7,2.03571429 Z" id="Fill-4" fill="#FFFFFF"></path>
                    <path d="M7,14.25 C3.14,14.25 0,11.0529107 0,7.125 C0,3.19708929 3.14,0 7,0 C10.86,0 14,3.19708929 14,7.125 C14,11.0529107 10.86,14.25 7,14.25 L7,14.25 L7,14.25 Z M7,2.03571429 C4.243,2.03571429 2,4.31876786 2,7.125 C2,9.93123214 4.243,12.2142857 7,12.2142857 C9.757,12.2142857 12,9.93123214 12,7.125 C12,4.31876786 9.757,2.03571429 7,2.03571429 L7,2.03571429 L7,2.03571429 Z" id="Stroke-5" stroke-opacity="0" stroke="#000000"></path>
                    <path d="M5,10.1785714 C4.744,10.1785714 4.488,10.0788011 4.293,9.88036982 C3.902,9.48239786 3.902,8.83903071 4.293,8.44105875 L6,6.70366821 L6,4.07142857 C6,3.50857393 6.448,3.05357143 7,3.05357143 C7.552,3.05357143 8,3.50857393 8,4.07142857 L8,7.125 C8,7.39573982 7.895,7.65330857 7.707,7.84465554 L5.707,9.88036982 C5.512,10.0788011 5.256,10.1785714 5,10.1785714" id="Fill-6" fill="#FFFFFF"></path>
                    <path d="M5,10.1785714 C4.744,10.1785714 4.488,10.0788214 4.293,9.88033929 C3.902,9.48235714 3.902,8.83907143 4.293,8.44108929 L6,6.70360714 L6,4.07142857 C6,3.50855357 6.448,3.05357143 7,3.05357143 C7.552,3.05357143 8,3.50855357 8,4.07142857 L8,7.125 C8,7.39575 7.895,7.65326786 7.707,7.844625 L5.707,9.88033929 C5.512,10.0788214 5.256,10.1785714 5,10.1785714" id="Stroke-7" stroke-opacity="0" stroke="#000000"></path>
                </g>
            </g>
        </g>
    </g>
</svg>