<?xml version="1.0" encoding="UTF-8" standalone="no"?>
<svg width="20px" height="20px" viewBox="0 0 20 20" version="1.1" xmlns="http://www.w3.org/2000/svg" xmlns:xlink="http://www.w3.org/1999/xlink" xmlns:sketch="http://www.bohemiancoding.com/sketch/ns">
    <!-- Generator: Sketch 3.4 (15575) - http://www.bohemiancoding.com/sketch -->
    <title>Home-icon</title>
    <desc>Created with Sketch.</desc>
    <defs></defs>
    <g id="Page-1" stroke="none" stroke-width="1" fill="none" fill-rule="evenodd" sketch:type="MSPage">
        <g id="Publish" sketch:type="MSArtboardGroup" transform="translate(-20.000000, -22.000000)" fill="#0F263D">
            <g id="Menubar-3" sketch:type="MSLayerGroup">
                <g id="Home" sketch:type="MSShapeGroup">
                    <g id="Home-icon" transform="translate(20.000000, 22.000000)">
                        <path d="M8,13 L12,13 L12,20 L8,20 L8,13 Z" id="Fill-1"></path>
                        <path d="M19.7,9.3 L10.7,0.3 C10.3,-0.1 9.700001,-0.1 9.300001,0.3 L0.3,9.3 C-0.09999922,9.7 -0.09999922,10.3 0.3,10.7 C0.7,11.1 1.300001,11.1 1.700001,10.7 L2,10.4 L2,19 C2,19.6 2.4,20 3,20 L6,20 L6,18 L4,18 L4,8.4 L10,2.4 L16,8.4 L16,18 L14,18 L14,20 L17,20 C17.6,20 18,19.6 18,19 L18,10.4 L18.3,10.7 C18.7,11.1 19.3,11.1 19.7,10.7 C20.1,10.3 20.1,9.7 19.7,9.3" id="Fill-3"></path>
                    </g>
                </g>
            </g>
        </g>
    </g>
</svg>