<?xml version="1.0" encoding="UTF-8" standalone="no"?>
<svg width="20px" height="14px" viewBox="0 0 20 14" version="1.1" xmlns="http://www.w3.org/2000/svg" xmlns:xlink="http://www.w3.org/1999/xlink" xmlns:sketch="http://www.bohemiancoding.com/sketch/ns">
    <!-- Generator: Sketch 3.4 (15575) - http://www.bohemiancoding.com/sketch -->
    <title>Index-icon</title>
    <desc>Created with Sketch.</desc>
    <defs></defs>
    <g id="Page-1" stroke="none" stroke-width="1" fill="none" fill-rule="evenodd" sketch:type="MSPage">
        <g id="Publish" sketch:type="MSArtboardGroup" transform="translate(-20.000000, -217.000000)" fill="#0F263D">
            <g id="Menubar-3" sketch:type="MSLayerGroup">
                <g id="Index" transform="translate(0.000000, 192.000000)" sketch:type="MSShapeGroup">
                    <g id="Index-icon" transform="translate(20.000000, 25.000000)">
                        <path d="M19,2 L6,2 C5.4,2 5,1.6 5,1 C5,0.4 5.4,0 6,0 L19,0 C19.6,0 20,0.4 20,1 C20,1.6 19.6,2 19,2" id="Fill-1"></path>
                        <path d="M10,8 L6,8 C5.4,8 5,7.6 5,7 C5,6.4 5.4,6 6,6 L10,6 C10.6,6 11,6.4 11,7 C11,7.6 10.6,8 10,8" id="Fill-3"></path>
                        <path d="M19,14 L6,14 C5.4,14 5,13.6 5,13 C5,12.4 5.4,12 6,12 L19,12 C19.6,12 20,12.4 20,13 C20,13.6 19.6,14 19,14" id="Fill-4"></path>
                        <path d="M2,2 L1,2 C0.4,2 0,1.6 0,1 C0,0.4 0.4,0 1,0 L2,0 C2.6,0 3,0.4 3,1 C3,1.6 2.6,2 2,2" id="Fill-5"></path>
                        <path d="M2,8 L1,8 C0.4,8 0,7.6 0,7 C0,6.4 0.4,6 1,6 L2,6 C2.6,6 3,6.4 3,7 C3,7.6 2.6,8 2,8" id="Fill-6"></path>
                        <path d="M2,14 L1,14 C0.4,14 0,13.6 0,13 C0,12.4 0.4,12 1,12 L2,12 C2.6,12 3,12.4 3,13 C3,13.6 2.6,14 2,14" id="Fill-7"></path>
                    </g>
                </g>
            </g>
        </g>
    </g>
</svg>