<?xml version="1.0" encoding="UTF-8" standalone="no"?>
<svg width="18px" height="18px" viewBox="0 0 18 18" version="1.1" xmlns="http://www.w3.org/2000/svg" xmlns:xlink="http://www.w3.org/1999/xlink" xmlns:sketch="http://www.bohemiancoding.com/sketch/ns">
    <!-- Generator: Sketch 3.4 (15575) - http://www.bohemiancoding.com/sketch -->
    <title>Search-icon</title>
    <desc>Created with Sketch.</desc>
    <defs></defs>
    <g id="Page-1" stroke="none" stroke-width="1" fill="none" fill-rule="evenodd" sketch:type="MSPage">
        <g id="Publish" sketch:type="MSArtboardGroup" transform="translate(-22.000000, -87.000000)" fill="#0F263D">
            <g id="Menubar-3" sketch:type="MSLayerGroup">
                <g id="Search" transform="translate(0.000000, 64.000000)" sketch:type="MSShapeGroup">
                    <g id="Search-icon" transform="translate(22.000000, 23.000000)">
                        <path d="M7,14 C3.1,14 0,10.9 0,7 C0,3.1 3.1,0 7,0 C10.9,0 14,3.1 14,7 C14,10.9 10.9,14 7,14 L7,14 Z M7,2 C4.2,2 2,4.2 2,7 C2,9.8 4.2,12 7,12 C9.8,12 12,9.8 12,7 C12,4.2 9.8,2 7,2 L7,2 Z" id="Fill-1"></path>
                        <path d="M16.3,17.700001 L13.3,14.700001 C12.9,14.300001 12.9,13.700001 13.3,13.300001 C13.7,12.900001 14.3,12.900001 14.7,13.300001 L17.7,16.300001 C18.1,16.700001 18.1,17.300001 17.7,17.700001 C17.3,18.1 16.7,18.1 16.3,17.700001" id="Fill-3"></path>
                    </g>
                </g>
            </g>
        </g>
    </g>
</svg>