<?xml version="1.0" encoding="UTF-8" standalone="no"?>
<svg width="20px" height="26px" viewBox="0 0 20 26" version="1.1" xmlns="http://www.w3.org/2000/svg" xmlns:xlink="http://www.w3.org/1999/xlink" xmlns:sketch="http://www.bohemiancoding.com/sketch/ns">
    <!-- Generator: Sketch 3.4 (15575) - http://www.bohemiancoding.com/sketch -->
    <title>Share-icon</title>
    <desc>Created with Sketch.</desc>
    <defs></defs>
    <g id="Page-1" stroke="none" stroke-width="1" fill="none" fill-rule="evenodd" sketch:type="MSPage">
        <g id="Mobile---front" sketch:type="MSArtboardGroup" transform="translate(-20.000000, -275.000000)">
            <g id="Menubar-3" sketch:type="MSLayerGroup">
                <g id="Share" transform="translate(0.000000, 256.000000)" sketch:type="MSShapeGroup">
                    <g id="Share-icon" transform="translate(18.000000, 20.000000)">
                        <path d="M12,14.4 L12,0.64" id="Fill-1" fill-opacity="0" fill="#000000" transform="translate(12.500000, 7.520000) scale(1, -1) translate(-12.500000, -7.520000) "></path>
                        <path d="M12,14.4 L12,0.64" id="Stroke-3" stroke="#0F263D" stroke-width="2" stroke-linecap="round" stroke-linejoin="round" transform="translate(13.000000, 7.520000) scale(1, -1) translate(-13.000000, -7.520000) "></path>
                        <path d="M15.3098,0.0856 L12,3.3954 L8.6903,0.0856" id="Fill-4" fill-opacity="0" fill="#000000" transform="translate(12.000050, 1.740500) scale(1, -1) translate(-12.000050, -1.740500) "></path>
                        <path d="M15.3098,0.0856 L12,3.3954 L8.6903,0.0856" id="Stroke-5" stroke="#0F263D" stroke-width="2" stroke-linecap="round" stroke-linejoin="round" transform="translate(12.000050, 1.740500) scale(1, -1) translate(-12.000050, -1.740500) "></path>
                        <path d="M8.6703,7.5195 L3.518,7.5195 L3.518,23.4836006 L20.4821,23.4836006 L20.4821,7.5195 L15.3297,7.5195" id="Fill-6" fill-opacity="0" fill="#000000"></path>
                        <path d="M8.6703,7.5195 L3.518,7.5195 L3.518,23.4836 L20.4821,23.4836 L20.4821,7.5195 L15.3297,7.5195" id="Stroke-7" stroke="#0F263D" stroke-width="2" stroke-linecap="round" stroke-linejoin="round"></path>
                        <path d="M0,0.0001 L24,0.0001 L24,24.0001 L0,24.0001 L0,0.0001 Z" id="Fill-8" fill-opacity="0" fill="#000000"></path>
                    </g>
                </g>
            </g>
        </g>
    </g>
</svg>